<svg width="409" height="326" viewBox="0 0 409 326" fill="none" xmlns="http://www.w3.org/2000/svg">
<g filter="url(#filter0_d)">
<path d="M85.9888 24.6411H88.7728V26.9333H86.495L85.9888 24.6411ZM98.3904 24.6411H102.187L102.946 24.8958C103.41 25.4476 103.748 26.1268 103.958 26.9333H97.378L98.3904 24.6411ZM110.286 24.6411C111.973 24.6835 113.829 24.9382 115.854 25.4052C116.993 25.4476 117.921 25.957 118.638 26.9333L116.613 27.188H112.311L111.298 27.4427L110.539 27.188C109.78 26.8059 109.105 26.2117 108.514 25.4052L110.286 24.6411ZM121.675 24.6411H124.965L125.725 24.8958L126.231 27.188L125.471 27.9521L122.687 27.4427L121.422 26.9333L121.675 24.6411ZM93.5816 25.4052C94.2988 25.5325 94.9734 25.8721 95.6064 26.4239H94.594L93.0754 26.9333L93.5816 25.4052ZM64.982 26.1692H67.2598L66.7537 27.9521L64.982 28.4614V26.1692ZM78.1429 26.9333L81.18 27.4427C81.1379 27.9521 80.969 28.4614 80.6738 28.9708L77.1305 30.4989C78.185 31.1356 79.4505 31.4752 80.9269 31.5177H83.9641L83.711 29.9896C84.5545 29.4377 85.5669 29.0981 86.7481 28.9708H88.0136L87.0012 31.7724C87.6337 31.6026 88.2245 31.263 88.7728 30.7536L89.0259 28.2067L91.3038 28.4614C92.4004 29.0132 93.497 29.6924 94.594 30.4989L97.6311 32.5364C97.7996 31.3054 98.2216 30.032 98.8966 28.7161L103.705 28.4614C105.097 28.5463 106.616 28.801 108.261 29.2255L111.551 30.7536L114.842 28.9708L119.65 29.2255L123.953 30.2442L127.243 32.0271C127.665 32.8335 128.002 33.7674 128.256 34.8286L126.99 35.0833L126.737 37.6302L128.002 38.6489L129.521 42.2146L130.28 46.5443V50.3646L131.04 50.874L132.305 54.6943L132.811 59.5334C133.191 60.6369 133.697 61.7404 134.33 62.8443C134.836 64.0326 135.173 65.3912 135.342 66.9193C135.848 68.1076 136.186 69.551 136.355 71.249C135.469 71.5885 134.456 71.8431 133.317 72.0131V70.4849C133.317 69.1691 133.064 67.7258 132.558 66.1553L131.04 62.5896L130.28 58.2599V55.2037L129.015 54.4396L127.496 54.1849L127.243 57.2412L126.231 59.2787L127.749 59.7881L128.002 63.6084L127.749 64.3724C128.762 64.9242 129.521 65.773 130.027 66.9193C130.238 68.2775 130.576 69.6357 131.04 70.9943C131.883 71.8008 132.642 72.7348 133.317 73.7959L137.114 75.0693L139.898 86.5303L138.885 86.2756L134.836 86.0209V85.0021C135.426 83.941 135.848 82.6676 136.101 81.1818C136.059 79.9508 135.637 78.6773 134.836 77.3615C134.33 76.4275 133.571 75.5787 132.558 74.8146C132.052 75.9605 131.377 77.0644 130.533 78.1256C129.31 78.2951 127.96 78.6349 126.484 79.1443C125.725 79.6113 125.134 80.2902 124.712 81.1818H125.725L133.064 80.4178L134.077 80.6724L134.33 81.4365C133.866 82.2853 133.528 83.1341 133.317 83.9834C134.035 85.1716 134.456 86.5303 134.583 88.0584L135.595 89.0771L137.367 89.3318L137.873 89.0771L140.404 88.8224L139.898 90.8599C138.801 91.5816 137.451 92.0058 135.848 92.1334C135.637 92.2181 135.469 92.3881 135.342 92.6428L135.848 94.1709L137.114 94.6803L140.404 94.9349L140.151 96.2084C139.729 97.2695 139.392 98.4582 139.139 99.774C139.94 100.623 140.868 101.387 141.923 102.066L142.935 104.868L141.67 104.613L140.151 104.868C140.235 105.759 140.488 106.608 140.91 107.415C141.881 107.966 142.724 108.815 143.441 109.961L142.176 113.782L144.2 122.186C144.58 123.29 145.339 124.224 146.478 124.988L147.997 125.752C147.912 126.559 147.659 127.323 147.238 128.044C147.617 129.19 147.87 130.379 147.997 131.61C147.617 133.096 146.605 133.86 144.96 133.902L146.225 134.921H148.503V137.722C148.714 138.996 149.22 140.269 150.022 141.543L151.793 144.854L155.843 161.408C155.969 162.724 156.222 164.168 156.602 165.738C156.644 167.012 156.897 168.454 157.361 170.068L157.868 174.652C158.247 175.84 158.585 177.284 158.88 178.982L160.145 182.802C160.525 183.948 160.863 185.307 161.158 186.877L162.929 195.282C163.056 196.598 163.309 198.041 163.689 199.612L163.942 204.705C163.815 205.936 163.394 207.21 162.676 208.526C161.579 209.077 160.314 209.502 158.88 209.799L157.361 209.544L156.855 212.346L157.108 214.893L161.158 213.619L162.676 219.222V222.279L162.423 224.316C161.369 224.953 160.103 225.377 158.627 225.59L153.818 225.335C152.637 224.995 151.371 224.486 150.022 223.807L149.769 225.335L150.022 225.844H144.96L144.2 223.807L141.67 223.552L141.416 224.826C140.277 225.504 138.928 225.844 137.367 225.844H126.99C126.273 225.547 125.429 225.293 124.459 225.08L123.447 225.335H118.385C117.077 225.25 115.643 224.91 114.082 224.316L113.323 216.93L114.842 216.421L117.879 214.129V210.818L116.613 210.563L114.842 213.874L112.311 213.619L110.286 195.791C110.75 195.409 111.171 194.9 111.551 194.263L109.78 191.462L108.261 187.896L106.743 179.237H92.0631C91.0086 178.557 90.2493 177.538 89.7852 176.18L88.0136 162.682V161.154H91.81L91.5569 158.607H90.2914L89.279 160.39C88.604 160.304 87.9289 159.965 87.2543 159.371L86.495 158.352L85.7357 160.899L87.2543 178.982L82.4455 178.727L81.6862 178.982L78.1429 179.237L77.3836 179.746L73.8403 201.904C73.7982 203.389 73.0389 204.408 71.5624 204.96L67.2598 204.196C66.0786 204.451 65.0662 205.129 64.2227 206.233L61.1856 208.271L57.3892 209.799C57.1361 210.478 56.883 211.242 56.6299 212.091H58.4016C59.5824 212.388 60.5948 213.068 61.4387 214.129L61.1856 216.93L60.6794 217.694L61.1856 217.949C60.5948 218.501 59.9201 218.925 59.1608 219.222L51.0618 219.987H49.7964C49.0371 219.265 48.4463 218.246 48.0247 216.93C47.4764 215.826 47.0544 214.553 46.7592 213.11L45.4938 197.065L43.9752 197.829L43.469 197.319L41.4443 194.263L38.6601 186.877L37.9009 182.293L36.3823 181.529V184.076L36.8885 188.405C37.1837 189.636 37.6056 190.995 38.1539 192.48C38.6179 193.584 39.2085 194.687 39.9256 195.791L39.4194 197.829L41.6973 203.432L42.7097 207.252C43.0892 208.44 43.4269 209.884 43.7221 211.582L43.9752 215.402L43.7221 216.166C43.258 217.312 42.583 218.416 41.6973 219.477L38.9132 219.987L37.1416 205.215L36.8885 204.705C36.8041 203.347 36.551 201.904 36.1292 200.376C35.8761 199.357 35.2012 198.762 34.1044 198.593L34.3575 199.612L34.8637 209.29C35.0324 210.521 35.3699 211.879 35.8761 213.365L36.8885 215.657L36.6354 217.185C36.1713 218.331 35.4964 219.435 34.6106 220.496L31.3204 220.241L31.0673 218.968V213.874C31.0251 212.601 30.4345 211.497 29.2957 210.563L29.0426 220.496L28.2833 221.005L25.2461 220.241L21.4497 218.713L20.4374 218.968L21.1966 220.751C20.3108 221.005 19.2984 221.175 18.1595 221.26L17.9064 219.477V214.383L18.6657 210.054L20.4374 206.488V204.451L21.1966 202.413C21.3231 201.14 21.9137 199.951 22.9683 198.847L24.2338 202.668L24.4869 201.649L23.9807 194.263L24.2338 193.499V189.933L30.5611 158.607C30.6876 157.418 31.0251 156.06 31.5735 154.532H33.5983L33.8513 151.73V148.165L34.1044 146.891L34.3575 142.052C35.1168 142.901 35.7917 143.835 36.3823 144.854C36.7197 146 37.0572 147.443 37.3947 149.183C37.5634 150.414 37.9009 151.773 38.407 153.258C38.5335 153.64 38.7866 153.98 39.1663 154.277C39.6303 153.683 39.9678 153.004 40.1787 152.24L41.9504 151.221L40.9381 149.947L39.1663 146.637C38.7866 145.49 38.4492 144.132 38.1539 142.562L37.6478 132.883C38.4914 132.034 39.2507 131.015 39.9256 129.827V124.733L38.9132 124.479L44.9876 88.8224L47.7716 89.3318L50.3025 89.0771L50.5556 87.8037L50.3025 87.2943C49.7542 86.5303 49.3323 85.5963 49.0371 84.4928L50.0495 84.2381C50.7666 83.2617 51.1882 82.073 51.3149 80.6724L56.1237 54.6943V49.6006L55.6175 45.7803L58.1485 37.1208L60.6794 34.3192C61.5229 34.9984 62.5353 35.5078 63.7165 35.8474H68.7784C69.1579 34.6163 70.0018 33.7674 71.3094 33.3005L72.8279 32.7911L71.5624 31.263L69.5377 31.5177C69.7062 30.8809 70.0439 30.2018 70.5501 29.4802L74.0934 29.2255L74.8527 28.7161C76.0335 28.5887 77.1305 27.9945 78.1429 26.9333ZM103.452 30.7536C103.452 31.1356 103.621 31.3903 103.958 31.5177C104.296 31.3903 104.633 31.1356 104.971 30.7536H103.452ZM65.9944 31.5177L67.766 31.7724C67.6814 32.7062 67.1752 33.3854 66.2475 33.8099C65.6992 33.4703 65.193 32.9609 64.7289 32.2817L65.9944 31.5177ZM115.601 32.2817C115.727 32.876 116.065 33.3854 116.613 33.8099C116.444 33.258 116.107 32.7487 115.601 32.2817ZM91.0507 33.3005C91.177 34.1494 91.5148 34.9135 92.0631 35.5927L92.8224 35.8474L94.8471 35.5927C94.8471 34.9135 94.6782 34.2343 94.3409 33.5552L91.0507 33.3005ZM79.4084 35.338C79.8724 36.3992 80.5471 37.4179 81.4331 38.3942C82.5718 38.7762 83.7531 39.0309 84.9764 39.1583C84.7233 38.1396 84.2172 37.1208 83.4579 36.1021C82.3187 35.72 80.969 35.4653 79.4084 35.338ZM97.378 35.5927C97.5465 36.2718 97.8842 36.8661 98.3904 37.3755C98.3058 36.7387 97.9685 36.1445 97.378 35.5927ZM87.7605 39.6677V40.9412L90.2914 40.6864C89.49 40.2619 88.6461 39.9224 87.7605 39.6677ZM98.1373 42.9787C98.1794 43.7851 98.5168 44.4644 99.1497 45.0162L99.4028 42.9787H98.1373ZM102.946 45.0162L102.44 47.0537L103.958 46.799L104.465 45.0162H102.946ZM70.8032 47.3084L71.5624 51.1287C71.984 51.8504 72.5748 52.4445 73.3341 52.9115L73.5872 48.5818V47.3084H70.8032ZM109.273 47.8178C109.4 48.1572 109.653 48.3271 110.033 48.3271L109.273 47.8178ZM113.576 49.0912C114.04 50.5769 115.053 51.4258 116.613 51.6381L116.866 50.874L116.36 49.0912H113.576ZM120.157 50.1099C119.566 50.407 119.06 50.9164 118.638 51.6381L120.663 52.9115L122.434 54.6943L124.965 54.4396C125.261 53.7603 125.429 52.9963 125.471 52.1474L125.218 50.874L124.206 51.6381C123.573 51.6381 122.983 51.3834 122.434 50.874C121.759 50.5342 121 50.2795 120.157 50.1099ZM71.8155 58.0053C71.8998 59.1511 72.5748 59.8304 73.8403 60.0428L74.3465 58.2599L71.8155 58.0053ZM116.613 61.5709C116.697 62.632 116.866 63.6508 117.119 64.6271L119.397 64.1178L119.65 63.3537L119.397 61.5709H116.613ZM51.3149 63.099H52.5804V64.8818H51.3149V63.099ZM66.5006 65.9006L64.982 66.1553L65.2351 70.2303L64.4758 72.7771C63.9275 72.5648 63.3367 72.2254 62.7042 71.7584C62.2401 71.3761 61.7339 70.8668 61.1856 70.2303L58.9077 70.7396L61.1856 74.0506C62.2401 75.0269 63.5898 75.6211 65.2351 75.8334C65.3614 74.3476 66.0365 73.0742 67.2598 72.0131L69.5377 71.7584L69.0315 68.9568C68.5674 67.6834 67.7239 66.6646 66.5006 65.9006ZM60.1732 66.4099V66.9193H60.4263L61.4387 66.6646L60.1732 66.4099ZM91.3038 67.9381L83.9641 134.157V137.977C84.3435 138.699 84.8497 139.378 85.4826 140.015L86.2419 146.637C86.8323 147.188 87.5074 147.528 88.2667 147.655L90.5445 146.382C91.1349 146.085 91.6411 145.575 92.0631 144.854L89.7852 143.58C89.0259 143.198 88.3509 142.604 87.7605 141.797C88.182 141.033 88.7728 140.354 89.5321 139.76C90.4599 139.76 91.388 139.929 92.3162 140.269C92.5693 141.033 93.0754 141.712 93.8347 142.307C94.7204 142.562 95.7327 142.731 96.8719 142.816L98.1373 140.269L103.705 138.487C104.212 138.02 104.886 137.68 105.73 137.468C106.489 137.977 107.333 138.401 108.261 138.741C109.231 138.487 109.738 137.807 109.78 136.704L105.224 134.157L102.187 131.101L101.934 132.119V133.138C101.301 132.968 100.71 132.629 100.162 132.119L93.3285 69.4662C93.0754 68.5746 92.4004 68.0652 91.3038 67.9381ZM49.7964 71.249L50.8087 72.7771L50.0495 73.5412L49.7964 71.249ZM110.286 72.0131C110.665 72.3101 111.087 72.4801 111.551 72.5224L110.286 72.0131ZM69.7908 73.5412V77.1068C70.0018 77.701 70.3391 78.2103 70.8032 78.6349L73.081 79.9084C73.6714 80.3326 74.3465 80.6724 75.1058 80.9271L75.3589 80.1631L74.8527 78.3803L73.5872 76.3428L71.8155 74.5599L69.7908 73.5412ZM100.415 77.6162C100.499 78.1679 100.752 78.5926 101.174 78.8896C101.132 78.3803 100.879 77.9556 100.415 77.6162ZM46.7592 82.7099L48.0247 82.9646C47.9401 84.1105 47.687 85.2992 47.2654 86.5303C46.9702 86.4879 46.7171 86.3179 46.5061 86.0209L46.7592 82.7099ZM111.045 83.9834L111.298 86.5303L113.323 86.2756C112.775 85.4263 112.015 84.6623 111.045 83.9834ZM125.218 84.7474L122.181 85.7662L117.372 89.0771C117.626 89.459 117.963 89.7136 118.385 89.8412L126.99 86.7849V84.7474H125.218ZM106.489 89.0771C106.954 89.459 107.46 89.7136 108.008 89.8412C107.544 89.5013 107.038 89.2466 106.489 89.0771ZM115.095 90.0959L111.551 91.1146C111.087 91.6664 110.75 92.3457 110.539 93.1521H111.551C112.353 93.1945 113.112 93.3644 113.829 93.6615L114.588 92.8974C114.842 92.091 115.01 91.157 115.095 90.0959ZM49.5433 92.1334C48.4041 92.2181 47.4764 92.7275 46.7592 93.6615L46.5061 95.699V96.4631H47.2654V96.2084L49.5433 94.1709L50.5556 92.1334H49.5433ZM100.415 92.6428C100.077 92.8974 99.8244 93.2369 99.6559 93.6615C100.077 93.4916 100.331 93.1521 100.415 92.6428ZM107.755 93.6615C106.785 93.831 106.11 94.4256 105.73 95.4443L106.743 95.1896C107.502 94.8926 108.176 94.3832 108.767 93.6615H107.755ZM47.0123 97.9912L44.4814 102.321L45.4938 102.576L48.0247 100.283L48.2778 98.5006L47.0123 97.9912ZM77.6367 100.793L76.3712 101.302C76.4976 102.066 76.7507 102.83 77.1305 103.594L78.1429 102.83C78.1429 102.151 77.974 101.472 77.6367 100.793ZM114.082 103.085C114.124 103.891 114.293 104.74 114.588 105.632V103.594C114.546 103.382 114.377 103.212 114.082 103.085ZM80.4207 103.594L79.9146 105.632L80.9269 105.377C81.3064 104.91 81.5595 104.316 81.6862 103.594H80.4207ZM46.253 105.632C45.9153 105.886 45.6622 106.226 45.4938 106.651L46.7592 107.16L47.2654 105.886L46.253 105.632ZM82.6986 107.924L80.4207 109.197L80.1676 110.471L81.6862 110.726C82.3609 110.386 82.9517 109.876 83.4579 109.197L83.9641 107.924H82.6986ZM118.132 108.688L117.372 111.49L114.842 112.254C114.335 112.805 113.913 113.485 113.576 114.291L113.07 117.093C113.407 117.432 113.829 117.602 114.335 117.602L117.372 117.347L118.638 119.64C118.933 120.234 119.439 120.743 120.157 121.168L121.422 120.913L120.916 119.64C120.325 119.13 119.819 118.451 119.397 117.602L120.916 115.819L119.144 114.291L118.638 112.508L119.65 112.254L121.928 111.235L120.41 109.452L118.132 108.688ZM59.1608 109.961L58.9077 111.235L59.4139 112.254L60.6794 111.999L60.9325 109.961H59.1608ZM44.9876 112.508C45.2407 113.867 46.0842 114.715 47.5185 115.055C47.4339 114.249 47.2654 113.4 47.0123 112.508H44.9876ZM64.982 117.093L64.4758 120.404C64.6443 121.125 64.982 121.72 65.4882 122.186C65.8255 121.337 66.0786 120.319 66.2475 119.13C66.0786 118.366 65.6567 117.687 64.982 117.093ZM43.2159 117.347L44.4814 120.658C44.1015 120.828 43.7642 121.083 43.469 121.422L43.2159 124.733L44.7345 124.479C44.9876 122.951 45.4938 121.337 46.253 119.64C45.9999 118.196 44.9876 117.432 43.2159 117.347ZM59.1608 119.385L57.3892 120.149C57.6423 120.871 58.0638 121.55 58.6547 122.186L61.4387 125.243H62.9572C62.8726 124.266 62.5353 123.248 61.9449 122.186C61.2277 121.253 60.2996 120.319 59.1608 119.385ZM64.982 125.243L64.2227 128.299L63.7165 134.921C63.7165 135.94 63.885 136.958 64.2227 137.977C64.4758 137.086 64.6443 136.067 64.7289 134.921L65.2351 128.299L64.982 125.243ZM124.965 127.535L124.712 129.063C124.923 129.403 125.261 129.572 125.725 129.572C125.725 128.851 125.471 128.171 124.965 127.535ZM144.454 127.535C144.665 128.129 145.086 128.554 145.719 128.808C145.508 128.214 145.086 127.79 144.454 127.535ZM106.236 129.572C106.321 130.888 106.996 131.992 108.261 132.883L111.804 134.412C111.678 132.841 110.75 131.992 109.02 131.865C108.345 130.973 107.417 130.209 106.236 129.572ZM41.6973 133.647L40.4318 133.902L40.9381 137.213C41.2754 136.109 41.5285 134.921 41.6973 133.647ZM57.3892 133.902C57.4313 134.963 57.6002 135.982 57.8954 136.958L58.1485 134.412C58.0217 134.199 57.7686 134.029 57.3892 133.902ZM114.842 134.157L113.07 134.666L113.323 137.722L114.335 142.562L115.601 142.816V138.741L114.842 134.157ZM100.668 134.412C101.217 134.539 101.892 134.624 102.693 134.666L102.44 136.449C101.554 136.152 100.963 135.473 100.668 134.412ZM104.971 140.269L105.73 142.816C106.363 143.283 107.122 143.538 108.008 143.58C107.966 142.689 107.797 141.755 107.502 140.779L104.971 140.269ZM63.7165 141.543L63.2103 150.457L64.2227 150.202L64.7289 146.382V145.618C64.7289 144.259 64.3912 142.901 63.7165 141.543ZM111.045 141.543L110.792 143.326C110.918 143.58 111.171 143.75 111.551 143.835C111.551 143.071 111.382 142.307 111.045 141.543ZM78.9022 141.797L78.6491 144.854C79.1132 145.236 79.7036 145.49 80.4207 145.618L80.9269 142.816C80.4207 142.349 79.7457 142.01 78.9022 141.797ZM116.36 142.052L116.866 144.09L119.144 143.835C118.638 142.774 117.71 142.179 116.36 142.052ZM45.7469 142.816C45.4091 143.495 45.156 144.259 44.9876 145.108L45.9999 144.854L46.7592 142.816H45.7469ZM102.693 144.599C102.355 145.618 102.102 146.721 101.934 147.91L103.199 147.655C103.579 146.891 103.832 146.042 103.958 145.108L102.693 144.599ZM112.817 145.108L113.576 148.929C113.745 149.905 114.335 150.499 115.348 150.712L115.601 147.91L115.095 146.891C114.504 146.17 113.745 145.575 112.817 145.108ZM93.0754 146.637L92.5693 148.165L92.8224 148.674L93.3285 149.438L94.8471 148.929C95.1423 148.292 95.3954 147.528 95.6064 146.637H93.0754ZM136.861 147.655V148.929C137.451 148.716 137.957 148.377 138.379 147.91L136.861 147.655ZM45.2407 147.91C45.2407 148.292 45.4091 148.546 45.7469 148.674C46.0842 148.546 46.4215 148.292 46.7592 147.91H45.2407ZM124.206 148.929C124.374 149.862 124.712 150.796 125.218 151.73L127.243 153.004L126.484 149.947C125.851 149.48 125.092 149.141 124.206 148.929ZM88.0136 149.438C86.9591 150.414 86.3682 151.688 86.2419 153.258C86.9591 154.404 87.4653 155.763 87.7605 157.333C88.5198 156.315 88.9413 155.126 89.0259 153.768C89.0259 152.409 88.6882 150.966 88.0136 149.438ZM140.151 151.73C139.687 152.197 139.35 152.791 139.139 153.513C139.729 153.088 140.066 152.494 140.151 151.73ZM63.4634 154.532C63.5477 155.338 63.8008 156.102 64.2227 156.824C64.2227 156.06 63.9696 155.296 63.4634 154.532ZM42.4566 155.296C41.4443 155.975 40.2631 156.569 38.9132 157.079C38.9976 158.479 39.2507 160.007 39.6725 161.663C40.7271 161.154 41.6552 160.39 42.4566 159.371C42.7097 158.31 42.8782 157.121 42.9628 155.805C42.9207 155.593 42.7518 155.423 42.4566 155.296ZM144.2 155.296C143.146 155.551 142.302 156.145 141.67 157.079V158.097L144.454 157.843L144.96 156.315L146.731 156.569V155.296H144.2ZM133.571 156.569L129.268 157.843L109.78 171.341C108.641 171.681 108.05 172.36 108.008 173.379C109.316 173.082 110.665 172.572 112.058 171.851C113.154 171.299 114.251 170.62 115.348 169.813L122.181 165.738L126.231 164.21C127.116 163.404 127.96 162.47 128.762 161.408L131.799 159.116C132.895 158.692 133.486 157.843 133.571 156.569ZM136.861 156.824L137.114 159.626L138.885 159.116L139.392 156.824H136.861ZM63.2103 158.352V162.682L62.9572 163.191L62.4511 182.293L62.198 184.585V195.537L63.2103 195.282V191.462L63.4634 190.697V185.858L63.9696 176.435V167.521L64.2227 167.012V158.607L63.2103 158.352ZM45.2407 159.88V163.191H47.0123C46.9277 161.96 46.3373 160.857 45.2407 159.88ZM114.335 160.899C114.42 161.451 114.673 161.875 115.095 162.172C115.053 161.663 114.799 161.238 114.335 160.899ZM78.396 162.427L77.3836 162.937V164.465L77.8898 164.719L78.6491 164.21V162.427H78.396ZM40.685 162.682L40.4318 165.993L40.685 166.757L42.4566 169.558L44.2283 176.944L45.2407 191.971L46.5061 191.207L47.0123 182.547L46.5061 173.888C46.2109 172.784 45.789 171.681 45.2407 170.577L44.9876 167.266C44.6498 166.247 44.1437 165.229 43.469 164.21C42.6676 163.658 41.7395 163.149 40.685 162.682ZM134.077 163.191L133.824 164.719L134.33 163.701V163.191H134.077ZM150.528 164.974C150.992 165.696 151.582 166.375 152.299 167.012C152.257 165.993 151.667 165.313 150.528 164.974ZM78.9022 167.521V170.322L81.9393 170.068C81.4331 168.837 80.4207 167.988 78.9022 167.521ZM132.052 167.521C131.208 168.54 130.027 169.219 128.509 169.558L129.015 172.869L130.027 172.615C130.744 171.596 131.757 170.747 133.064 170.068L133.824 167.521H132.052ZM150.781 168.794C149.769 168.837 149.009 169.346 148.503 170.322C149.304 170.62 150.148 170.789 151.034 170.832C151.878 170.662 152.637 170.237 153.312 169.558C152.553 169.219 151.709 168.964 150.781 168.794ZM137.114 169.304C137.704 169.771 138.379 170.025 139.139 170.068L137.114 169.304ZM92.8224 170.832C92.9066 171.384 93.1597 171.808 93.5816 172.105C93.497 171.681 93.2439 171.256 92.8224 170.832ZM95.3533 170.832C95.5643 171.426 95.9016 171.935 96.3657 172.36C96.281 171.765 95.9437 171.256 95.3533 170.832ZM123.194 170.832C122.476 171.214 121.886 171.808 121.422 172.615C121.506 173.294 121.844 173.888 122.434 174.397C122.983 173.973 123.489 173.379 123.953 172.615L124.206 170.832H123.194ZM116.107 172.36L114.842 174.907L116.36 174.143L118.385 172.615L116.107 172.36ZM135.595 173.888V176.18C135.595 176.562 135.764 176.817 136.101 176.944C136.059 175.968 135.89 174.949 135.595 173.888ZM120.916 175.416C120.578 176.223 120.41 177.071 120.41 177.963H121.169L121.675 175.926C121.548 175.713 121.295 175.543 120.916 175.416ZM125.978 175.926L126.231 178.472L126.737 178.727L128.002 178.472L128.509 178.218C128.424 176.774 127.58 176.01 125.978 175.926ZM114.588 178.982L114.842 185.858L116.866 185.604C116.782 184.5 116.529 183.312 116.107 182.038L114.588 178.982ZM137.114 180.255L136.861 182.802H137.873C137.746 182.038 137.493 181.189 137.114 180.255ZM27.2709 180.765V181.274L27.7771 181.019L27.2709 180.765ZM128.509 180.765V184.33L130.027 183.566L130.786 183.057C131.925 183.481 133.191 183.821 134.583 184.076C134.456 182.972 133.781 182.038 132.558 181.274L128.509 180.765ZM119.903 181.274L118.891 181.529C119.102 182.123 119.439 182.717 119.903 183.312C120.536 184.033 121.38 184.543 122.434 184.84L122.941 183.057L122.687 182.293C121.886 181.911 120.958 181.571 119.903 181.274ZM138.379 182.802C138.548 183.396 138.885 183.906 139.392 184.33C139.181 183.779 138.843 183.269 138.379 182.802ZM124.712 183.821L124.206 185.094L125.218 185.349L124.712 183.821ZM142.429 184.585C142.597 185.434 143.019 186.198 143.694 186.877V184.585H142.429ZM26.7647 185.858L26.5116 189.169L26.7647 192.226L27.7771 194.772V201.649L26.5116 203.687C27.06 204.196 27.7349 204.62 28.5364 204.96L29.5487 207.507H30.8142L29.0426 190.188V186.622C28.3676 186.283 27.6083 186.028 26.7647 185.858ZM128.002 185.858L127.496 187.387L128.509 187.132L129.015 186.113L128.002 185.858ZM133.317 185.858L132.811 186.877L133.317 189.169V189.933C133.275 191.376 132.431 192.226 130.786 192.48L129.015 192.735C129.141 193.414 129.394 194.093 129.774 194.772C131.082 194.857 132.516 195.112 134.077 195.537C134.878 196.004 135.806 196.343 136.861 196.555L135.089 192.226L134.836 189.424L135.342 187.896L135.595 186.113L133.317 185.858ZM110.792 187.641C110.918 188.108 111.171 188.532 111.551 188.915C111.467 188.448 111.214 188.023 110.792 187.641ZM116.107 188.915L112.564 189.424V191.716L113.829 192.226L114.842 195.282L116.36 197.574C116.529 197.871 116.782 198.041 117.119 198.083L118.385 197.065C118.385 196.47 118.132 195.876 117.626 195.282C117.246 194.433 116.908 193.414 116.613 192.226L116.107 188.915ZM58.9077 189.933C58.9499 190.782 59.1187 191.631 59.4139 192.48L59.667 190.952L59.4139 190.443C59.3718 190.273 59.203 190.103 58.9077 189.933ZM144.96 191.716L145.213 192.48L145.466 191.716H144.96ZM120.916 194.263C121.211 194.645 121.633 194.9 122.181 195.027C121.886 194.645 121.464 194.39 120.916 194.263ZM123.447 196.046L124.965 196.81C124.501 196.47 123.995 196.215 123.447 196.046ZM122.181 196.555L121.422 198.593C121.548 198.847 121.801 199.017 122.181 199.102L122.687 197.065C122.645 196.852 122.476 196.682 122.181 196.555ZM155.59 198.593V199.612C156.096 199.399 156.517 199.06 156.855 198.593H155.59ZM55.8706 200.121L56.1237 202.922H57.8954V200.121H55.8706ZM135.342 200.121L135.595 203.687C136.27 204.238 137.029 204.663 137.873 204.96L137.114 201.904C136.734 201.182 136.144 200.588 135.342 200.121ZM115.095 200.376L115.348 202.922H116.613V200.376H115.095ZM123.7 202.158L122.941 203.941L123.447 203.687L124.206 202.668C124.164 202.455 123.995 202.286 123.7 202.158ZM132.305 203.687C132.389 204.365 132.642 204.96 133.064 205.469L133.317 203.687H132.305ZM157.614 204.705L155.59 205.979L154.83 207.252C155.084 207.379 155.421 207.464 155.843 207.507C156.602 207.507 157.361 207.252 158.121 206.743L158.374 204.96L157.614 204.705ZM24.2338 204.96C23.6854 205.469 23.1792 206.148 22.7152 206.997L24.4869 208.526H25.7523L25.4992 206.743C25.2461 206.148 24.8243 205.554 24.2338 204.96ZM125.725 205.469C126.231 206.53 127.159 207.125 128.509 207.252C127.749 206.488 126.821 205.894 125.725 205.469ZM115.601 205.979C115.727 206.573 116.065 207.082 116.613 207.507C116.444 206.955 116.107 206.446 115.601 205.979ZM152.553 207.762C152.257 208.356 152.089 208.95 152.046 209.544H153.312L153.818 207.762H152.553ZM146.985 210.563C146.309 211.03 145.634 211.624 144.96 212.346L146.478 212.855C147.322 212.77 148.081 212.346 148.756 211.582C148.25 211.157 147.659 210.818 146.985 210.563ZM25.2461 212.091L24.9931 215.657C25.0774 216.676 25.3305 217.694 25.7523 218.713V215.147C25.7523 214.129 25.5836 213.11 25.2461 212.091ZM162.929 211.837C163.773 212.176 164.616 212.685 165.46 213.365L166.473 216.166V219.987C166.431 221.005 166.178 222.024 165.713 223.043C164.743 222.915 164.153 222.321 163.942 221.26V217.44L163.436 214.129C163.098 213.492 162.929 212.728 162.929 211.837ZM140.151 214.129C139.392 214.468 138.632 214.893 137.873 215.402C137.873 216.379 138.379 216.888 139.392 216.93C140.193 216.718 140.952 216.379 141.67 215.912C141.67 214.935 141.163 214.341 140.151 214.129ZM20.9435 214.383C21.2388 214.765 21.6606 215.02 22.209 215.147C21.9137 214.765 21.4919 214.511 20.9435 214.383ZM125.978 216.93L126.484 217.949L126.737 216.93H125.978ZM149.009 218.458V219.732L150.528 219.477C150.148 219.053 149.642 218.713 149.009 218.458ZM116.866 219.987C116.866 221.005 117.288 221.599 118.132 221.769L118.638 219.987H116.866ZM156.855 221.26L156.096 222.024C156.56 222.618 157.15 223.043 157.868 223.297C157.783 222.618 157.446 221.939 156.855 221.26ZM128.256 221.769C128.467 222.533 128.888 223.212 129.521 223.807C130.533 224.062 131.63 224.231 132.811 224.316C132.642 223.51 132.22 222.746 131.546 222.024L128.256 221.769ZM177.798 38.7126H183.05L183.746 38.9673L204.247 39.222C204.669 39.3068 205.027 39.4766 205.322 39.7313V43.8063L206.335 46.6079L213.295 45.8438V47.8813C214.645 48.603 216.163 49.2823 217.851 49.9188L214.371 52.4657L211.587 55.7766C210.743 56.8801 209.457 57.7294 207.727 58.3235L206.019 58.8329L208.107 63.4173L205.639 64.1813L204.626 66.4735L216.459 70.0391L218.547 73.8595L219.243 77.6798L218.863 78.4438L218.547 81.2454L216.079 80.9907C214.561 80.4813 213.4 79.5473 212.599 78.1891L212.283 76.9157C211.102 77.0856 209.942 77.4251 208.803 77.9345C209.688 78.7833 210.954 79.5473 212.599 80.2266C213.611 81.1606 214.898 81.9247 216.459 82.5188C217.387 83.4528 218.526 84.3864 219.876 85.3204L218.863 87.1032L215.383 86.8485L216.459 87.8673L216.775 88.6313L216.459 90.6688L218.547 91.1782L219.559 91.6876C219.222 92.6639 218.652 93.5979 217.851 94.4891C217.303 94.5739 216.838 94.7438 216.459 94.9985C217.218 95.5503 218.146 96.0596 219.243 96.5266C219.496 96.6114 219.707 96.7813 219.876 97.036C219.665 98.2247 219.559 99.5829 219.559 101.111L215.763 101.366L213.675 103.403L214.371 104.422C215.299 105.271 216.459 106.12 217.851 106.969C219.074 107.775 219.981 108.879 220.572 110.28V113.845L220.255 114.355L219.876 115.119C218.863 115.713 218.188 116.562 217.851 117.666C218.315 118.26 218.652 118.939 218.863 119.703H215.383L211.587 118.43V119.449L213.675 119.703L214.371 121.741L213.675 122.25C212.915 123.226 212.325 124.33 211.903 125.561L215.067 128.617C213.548 129.084 212.388 129.933 211.587 131.164C212.557 132.098 213.126 133.286 213.295 134.73C212.789 135.069 212.451 135.494 212.283 136.003L214.371 141.861L213.991 142.625C212.219 142.37 210.827 141.606 209.815 140.333C209.225 139.229 208.296 138.211 207.031 137.277V141.861L209.815 144.663L211.903 144.153L210.891 151.03H212.283C213.675 150.563 215.067 149.883 216.459 148.992C217.303 147.974 218.441 147.04 219.876 146.191L220.255 147.209L219.876 150.011L219.559 150.775C219.053 151.539 218.715 152.388 218.547 153.322C218.631 153.704 218.969 154.044 219.559 154.341L220.255 156.633L217.155 156.888L219.876 158.416V161.217L217.471 161.727C216.965 162.406 216.627 163.17 216.459 164.019L218.167 164.783C219.222 165.038 219.918 165.632 220.255 166.566L217.471 166.311L212.283 165.038L210.194 165.292C210.616 165.972 211.186 166.65 211.903 167.33C212.662 168.561 213.126 170.004 213.295 171.659V175.225L214.687 175.48L218.167 175.734L219.559 175.48L220.255 176.244L219.876 181.338C219.833 182.739 219.496 184.267 218.863 185.922L217.851 187.959L219.876 189.997L218.863 193.053L218.547 196.619C218.251 196.916 217.893 197.086 217.471 197.128C216.163 196.576 214.898 195.812 213.675 194.836C213.126 193.52 212.768 191.992 212.599 190.252L211.903 188.724L208.423 189.233L206.715 190.252C207.052 190.846 207.516 191.355 208.107 191.78L211.207 192.544L210.511 194.327C208.613 194.708 207.347 195.558 206.715 196.874L210.194 199.42L206.715 199.93C206.673 199.378 206.314 198.869 205.639 198.402L202.159 199.93L203.551 196.109C203.256 195.855 202.792 195.685 202.159 195.6V192.289L200.767 191.525C201.189 190.422 202.117 189.488 203.551 188.724C204.943 188.002 206.462 187.323 208.107 186.686L210.194 185.922L209.815 183.375L208.107 183.12L207.411 183.375H206.715L205.639 184.903L201.147 186.941C200.556 188.214 200.092 189.572 199.754 191.016L197.983 191.78L199.058 196.619L196.591 197.128L196.275 192.034C194.629 192.204 192.773 192.544 190.707 193.053L186.847 195.345L178.178 196.874C178.431 196.279 178.895 195.685 179.57 195.091L180.583 192.799C181.257 192.417 181.954 191.907 182.671 191.27L181.658 190.506C183.135 189.658 184.991 189.233 187.226 189.233C188.45 189.105 189.146 188.511 189.314 187.45L183.746 187.959L182.671 186.431L177.798 185.922V38.7126ZM183.05 40.7501C182.249 41.4294 181.658 42.2782 181.279 43.297L183.05 49.6641C183.514 50.3434 184.316 50.8528 185.455 51.1923L187.226 48.9001L186.847 45.3345L185.834 42.2782C185.244 41.5989 184.316 41.0895 183.05 40.7501ZM197.983 47.8813C197.561 48.5606 197.329 49.3247 197.287 50.1735L198.363 50.4282L201.463 50.1735L202.538 48.9001L201.843 48.136L197.983 47.8813ZM203.551 52.211C202.581 52.6356 201.779 53.2298 201.147 53.9938L203.235 53.7391C204.163 53.3997 204.964 52.8903 205.639 52.211H203.551ZM184.759 52.4657L184.442 56.0313L186.53 55.7766L186.847 53.2298L184.759 52.4657ZM215.383 55.2673H218.547C218.504 55.819 218.272 56.4136 217.851 57.0501L215.067 57.3048L215.383 55.2673ZM200.451 61.3798C200.535 61.9315 200.872 62.3561 201.463 62.6532C201.379 62.1438 201.041 61.7192 200.451 61.3798ZM215.763 61.6345C216.86 61.9315 217.893 62.4409 218.863 63.1626H215.763V61.6345ZM211.207 63.4173L212.599 65.2001H210.891L211.207 63.4173ZM216.459 66.9829H218.863V68.2563H216.459V66.9829ZM195.579 69.7845C196 70.1667 196.57 70.421 197.287 70.5485L195.579 69.7845ZM208.803 70.5485L210.194 73.0954C210.954 73.5624 211.882 73.8171 212.979 73.8595L213.295 71.822L212.283 71.3126L208.803 70.5485ZM197.983 83.0282L196.97 84.047C197.561 83.877 197.899 83.5376 197.983 83.0282ZM207.727 84.3016L210.194 85.3204C209.562 84.8534 208.739 84.5139 207.727 84.3016ZM198.679 86.8485L199.058 88.6313L202.855 88.3766L202.538 86.8485H198.679ZM200.451 92.4516L201.147 93.9798L202.855 94.2345L203.551 93.9798C202.96 93.1733 201.927 92.6639 200.451 92.4516ZM196.97 95.7626L196.275 96.7813H198.679C198.342 96.3567 197.772 96.0173 196.97 95.7626ZM203.931 97.5454L199.754 98.0548C199.417 98.2247 199.185 98.4794 199.058 98.8188C199.185 99.1583 199.522 99.4981 200.071 99.8376L203.551 99.0735L204.626 98.0548C204.542 97.8425 204.31 97.6729 203.931 97.5454ZM197.666 102.639C197.498 103.233 197.371 103.913 197.287 104.677V105.441H197.666L200.451 106.714L201.843 106.969L201.147 108.497C201.442 109.176 201.906 109.855 202.538 110.534L203.235 107.988L202.538 105.186C201.273 104.083 199.649 103.233 197.666 102.639ZM207.411 102.894C206.441 103.361 205.512 104.04 204.626 104.931C205.681 105.398 206.841 105.738 208.107 105.95C209.372 105.823 210.173 105.228 210.511 104.167C209.836 103.318 208.803 102.894 207.411 102.894ZM215.067 110.025C215.278 111.383 216.438 112.063 218.547 112.063C217.956 111.001 216.796 110.322 215.067 110.025ZM202.855 112.827L202.159 116.392L204.626 122.25C204.795 123.099 205.365 123.863 206.335 124.542L206.019 120.722L206.715 118.939L206.019 118.175C204.922 117.539 204.331 116.605 204.247 115.374V112.827H202.855ZM205.322 125.816V129.127L207.411 128.617L207.727 126.07L205.322 125.816ZM185.834 126.325L186.53 129.381L187.543 128.872L187.922 127.599L187.543 127.344V126.325H185.834ZM205.322 131.419L205.639 133.456C206.187 133.753 206.778 133.923 207.411 133.966L207.727 132.183L205.322 131.419ZM186.151 133.711C185.855 133.966 185.623 134.305 185.455 134.73L186.151 137.022C186.741 137.786 187.669 138.465 188.935 139.059L189.314 136.258L188.935 135.494C188.133 134.857 187.205 134.263 186.151 133.711ZM197.983 139.824L197.666 144.663C197.962 145.936 198.995 146.7 200.767 146.955V139.824H197.983ZM185.455 141.352L187.543 147.974L190.011 152.303L192.098 151.539L192.795 149.756L192.415 148.992L192.098 142.116L185.455 141.352ZM208.423 154.341C208.001 155.275 207.769 156.208 207.727 157.142C208.191 157.991 208.887 158.84 209.815 159.689L210.891 154.595L208.423 154.341ZM190.011 157.652L191.023 160.963L193.49 160.708V157.906L190.011 157.652ZM209.119 160.708C208.782 161.26 208.55 161.939 208.423 162.745C208.507 163.085 208.739 163.34 209.119 163.509L209.499 161.472V160.708H209.119ZM192.098 162.236V164.019L194.882 163.509C194.081 162.958 193.153 162.533 192.098 162.236ZM181.658 171.15C182.291 171.532 182.987 171.787 183.746 171.914C183.114 171.575 182.418 171.32 181.658 171.15ZM191.023 174.206L189.314 177.772C189.863 178.578 190.664 179.342 191.719 180.064L193.49 179.809L192.795 177.263L191.023 174.206ZM187.226 178.281C186.003 178.833 184.717 179.512 183.366 180.319L182.354 182.866C182.439 183.205 182.671 183.46 183.05 183.63C184.316 183.12 185.349 182.356 186.151 181.338C186.699 180.489 187.058 179.47 187.226 178.281ZM205.639 178.791L204.247 179.045C204.374 179.767 204.732 180.446 205.322 181.083L206.715 179.555C206.546 179.215 206.187 178.961 205.639 178.791ZM192.098 183.375L191.023 186.941C191.824 187.45 192.752 187.79 193.807 187.959C194.819 187.153 195.41 186.134 195.579 184.903C194.608 184.309 193.448 183.8 192.098 183.375ZM216.775 198.147L219.559 198.402L219.876 199.166L219.559 199.675L217.155 199.93L216.775 198.147ZM191.402 198.911C193.174 199.166 194.207 200.015 194.503 201.458V202.731L192.098 202.986L191.402 202.222H187.922L187.226 200.439L191.402 198.911ZM200.451 199.93L201.147 204.259L199.754 204.514L199.375 204.259C198.869 203.071 198.531 201.797 198.363 200.439C199.037 200.397 199.733 200.227 200.451 199.93ZM192.415 204.005L194.503 205.278C194.292 205.745 193.954 206.17 193.49 206.552C192.773 206.212 192.077 205.703 191.402 205.024L192.415 204.005ZM178.178 206.297C178.811 207.103 179.275 207.952 179.57 208.844L180.962 214.956C182.144 214.956 183.303 214.702 184.442 214.192L186.53 208.589C186.741 208.334 187.079 208.165 187.543 208.08L189.631 208.589L201.463 210.372C201.927 210.033 202.159 209.608 202.159 209.099C201.99 208.547 201.885 207.867 201.843 207.061L203.551 206.806C204.858 206.933 205.681 207.528 206.019 208.589C206.567 209.311 207.368 209.905 208.423 210.372C209.478 210.711 210.405 211.221 211.207 211.9L213.991 216.994C214.708 217.503 215.636 217.928 216.775 218.267C217.956 218.522 219.116 218.947 220.255 219.541C219.032 219.923 217.766 220.177 216.459 220.305H177.798V213.174L178.178 206.297ZM194.186 212.155C194.65 212.622 195.22 212.876 195.895 212.919L194.186 212.155ZM233.163 40.0497L253.157 40.559L254.676 40.8136L253.917 42.5965C253.959 43.6576 254.128 44.7615 254.423 45.9074C254.803 46.6715 255.477 47.3508 256.447 47.9449L260.244 47.6902L262.775 49.2183C263.703 49.6853 264.293 50.5342 264.547 51.7652C265.348 51.5529 266.107 51.2135 266.824 50.7465C267.415 49.9824 267.921 49.1336 268.343 48.1996L269.102 44.8886V42.3418L269.355 41.8324L269.102 41.5777L261.509 42.3418C261.509 41.79 261.678 41.2806 262.016 40.8136L265.559 40.0497H273.658L284.794 69.848L285.3 73.159C284.963 74.0506 284.457 74.8994 283.782 75.7058V76.9793H286.313C287.157 77.3615 287.916 77.9556 288.59 78.7621L289.856 81.5636L290.109 83.8558L283.782 81.8183C283.74 82.2006 283.571 82.54 283.275 82.8371L279.985 83.6011C280.829 84.0258 281.757 84.3652 282.769 84.6199L289.603 86.148C290.615 86.148 291.459 86.6574 292.134 87.6761L296.183 99.9011L298.967 105.25L301.751 113.654H300.486L297.449 114.418L296.436 115.437H298.461L302.004 115.946C302.722 116.413 303.481 117.008 304.282 117.729L306.054 124.096C306.476 124.903 307.066 125.667 307.826 126.389C308.374 127.068 309.049 127.747 309.85 128.426L310.863 129.19L324.783 91.7511L336.425 92.0058L343.006 90.223C343.723 89.7136 344.398 89.1195 345.03 88.4402L342.499 89.459H327.061L326.301 89.2043L327.061 85.8933L329.592 80.2902C329.972 79.4838 330.478 78.6349 331.11 77.7433L332.629 75.1965L335.16 65.5183L336.425 62.7168C336.889 61.8679 337.48 61.0191 338.197 60.1699L340.728 58.6418C340.391 57.623 340.137 56.5195 339.969 55.3308L341.74 48.9636L344.524 43.6152C345.41 43.1482 346.423 42.8088 347.561 42.5965L385.272 43.1058L384.766 53.548L383.501 50.7465C383.121 49.8976 382.53 49.1336 381.729 48.4543C381.012 48.8365 380.337 49.3459 379.704 49.9824L378.945 53.2933V55.0761L372.871 54.8215L369.581 54.0574C368.695 53.8027 367.683 53.6332 366.543 53.548C366.417 54.6519 366.164 55.7555 365.784 56.859C364.772 56.5619 363.844 56.0525 363 55.3308C362.199 54.8638 361.271 54.5244 360.216 54.3121C359.162 54.1426 358.318 53.548 357.685 52.5293C357.39 51.6805 356.884 50.9164 356.167 50.2371H353.383V51.5105L353.636 52.5293L352.623 69.084L353.889 69.3386C354.901 69.4662 355.66 70.0603 356.167 71.1215V75.1965L356.673 78.7621L357.685 82.073L358.191 81.0543L357.432 73.4136C357.854 72.7771 358.191 72.0131 358.444 71.1215L356.673 68.5746L355.407 66.0277L357.685 64.4996L361.482 63.9902L365.278 64.2449L365.025 66.0277L366.29 68.8293L366.037 70.8668L367.303 71.3761L370.087 71.6308L370.846 71.3761L374.136 70.6121C375.022 70.315 375.95 69.8904 376.92 69.3386L382.741 67.0465L384.766 66.7918C384.64 67.2164 384.387 67.641 384.007 68.0652L382.741 68.5746L383.248 70.1027L381.729 71.8855L382.235 73.4136C381.729 73.456 381.223 73.626 380.717 73.923L373.883 75.1965C373.082 75.6211 372.322 76.2152 371.605 76.9793L371.352 78.7621L371.605 79.2715L372.365 79.7808C373.251 79.5685 374.094 79.1443 374.896 78.5074L376.161 75.4511L382.741 76.9793C383.712 77.1492 384.555 77.6586 385.272 78.5074V224.189L383.754 224.443L364.266 224.189C363.97 224.019 363.802 223.764 363.759 223.425L364.772 217.821C364.139 217.143 363.38 216.633 362.494 216.293L359.204 217.057L353.889 219.859L351.611 221.387L355.154 220.878L358.444 219.859H359.457C359.499 220.453 359.668 221.048 359.963 221.642C359.921 221.812 359.752 221.982 359.457 222.151C358.613 222.406 357.854 222.915 357.179 223.679C356.082 224.019 354.901 224.274 353.636 224.443L347.561 224.698L347.308 198.465C347.519 197.489 347.857 196.47 348.321 195.409L349.586 188.532C349.839 187.726 350.008 186.792 350.092 185.731L349.333 182.165C349.249 181.146 349.08 180.128 348.827 179.109L348.574 175.289L349.08 167.648V164.337L349.839 164.082L349.333 161.536H350.345L353.636 160.771L354.395 160.007L353.889 157.97L352.623 155.168L351.611 154.15L351.358 161.026C350.683 160.899 350.008 160.559 349.333 160.007V151.857C349.755 150.966 350.008 150.032 350.092 149.056C350.219 148.207 350.556 147.358 351.105 146.509C351.358 145.575 351.527 144.557 351.611 143.453C351.569 142.434 351.4 141.33 351.105 140.142C350.303 139.335 349.881 138.317 349.839 137.086L349.586 134.284L349.839 133.52C350.219 132.713 350.725 131.865 351.358 130.973L353.889 130.464L353.636 131.482V135.557C353.847 136.534 354.184 137.553 354.648 138.614L355.66 141.67C355.956 142.561 356.546 143.071 357.432 143.198L357.685 135.303L358.191 132.246C357.601 131.568 356.926 130.888 356.167 130.209L355.66 127.662C355.702 127.365 355.871 127.11 356.167 126.898L359.71 127.407C360.68 127.917 361.271 128.766 361.482 129.954C361.777 130.718 362.283 131.482 363 132.246C363.38 132.246 363.633 132.077 363.759 131.737L363.253 129.954C362.832 129.148 362.494 128.299 362.241 127.407L362.747 123.842C362.579 122.908 362.241 121.889 361.735 120.786L359.963 114.418V112.126L358.698 111.871C358.023 112.636 357.685 113.654 357.685 114.928L359.71 125.115L356.42 125.625C355.702 124.946 355.196 124.096 354.901 123.078L353.889 119.767L352.623 117.22C351.991 116.456 351.485 115.522 351.105 114.418L351.358 112.381H349.839L349.08 113.145L350.092 117.22H348.574C347.603 117.008 346.591 116.668 345.537 116.201L341.234 115.182L338.45 115.437L337.944 116.201C338.113 116.796 338.45 117.305 338.956 117.729L341.487 118.239L342.246 117.984L344.777 117.475V118.493C344.313 119.343 343.723 120.191 343.006 121.04L341.74 123.587L340.728 126.898C340.686 127.874 340.18 128.554 339.209 128.936C338.408 129.318 337.649 129.912 336.931 130.718C337.691 131.015 338.282 131.61 338.703 132.501L336.931 138.868L332.882 147.018C332.418 147.74 331.827 148.504 331.11 149.311C330.436 150.032 329.676 150.711 328.832 151.348L326.301 152.621L323.011 153.64L319.468 154.15H315.672L315.165 155.932L323.264 155.423C323.56 155.508 323.813 155.678 324.024 155.932C324.825 156.357 325.753 156.696 326.808 156.951L326.555 154.15H329.339L328.579 156.187C328.158 156.994 327.652 157.843 327.061 158.734L315.418 158.989C316.051 159.795 316.979 160.22 318.202 160.262H326.301L326.048 163.318C325.584 164.125 325.163 165.059 324.783 166.12L321.999 171.468C321.535 170.917 321.113 170.237 320.733 169.431C320.269 168.54 319.51 168.03 318.456 167.903L317.443 168.157L318.709 173.761L318.962 177.581C318.709 178.6 318.371 179.703 317.949 180.892C317.064 181.232 316.051 181.486 314.912 181.656L311.369 182.42C310.61 182.717 309.935 183.142 309.344 183.693L313.141 183.439L316.178 183.948V186.24L302.511 185.986L301.751 185.731L300.739 182.675C301.034 181.911 301.625 181.316 302.511 180.892C302.215 180.255 301.793 179.661 301.245 179.109C300.36 178.77 299.431 178.345 298.461 177.836L297.702 174.525L296.943 172.487L297.702 171.978L296.943 168.667C295.972 168.54 295.129 168.03 294.412 167.139L293.146 164.337C292.851 163.446 292.429 162.512 291.881 161.536C292.429 160.984 293.104 160.474 293.905 160.007C293.526 159.116 292.935 158.267 292.134 157.461C291.543 156.866 290.953 156.187 290.362 155.423L288.59 152.876L278.214 126.643L280.998 126.134L288.337 126.898L291.374 127.917L292.64 128.171L293.146 127.917L292.893 126.389C292.092 125.964 291.163 125.625 290.109 125.37L276.695 122.568H272.646C271.844 123.205 271.422 124.139 271.38 125.37L271.886 157.461C272.097 158.479 272.435 159.498 272.899 160.517L273.658 163.828L270.115 164.592L258.219 164.846L255.435 165.356L257.207 167.648C258.177 167.393 259.105 166.969 259.991 166.375C261.003 166.587 262.016 166.926 263.028 167.393L268.343 170.195L267.331 169.686L267.837 167.648C268.638 166.969 269.651 166.629 270.874 166.629C271.844 166.969 272.688 167.563 273.405 168.412L273.911 170.704L272.899 170.959L271.886 171.468C271.971 172.063 272.224 172.657 272.646 173.251C273.405 173.888 273.827 174.822 273.911 176.053V180.128C273.236 180.807 272.73 181.656 272.392 182.675C272.73 183.481 273.236 184.33 273.911 185.221L273.658 216.039L272.392 216.548L270.368 218.586L267.077 218.331C266.065 218.416 265.306 219.01 264.8 220.114L262.269 220.623L262.016 219.604C261.678 220.411 261.509 221.345 261.509 222.406V223.679L232.657 222.151V216.803L233.163 209.162L233.922 211.2L234.681 214.511C235.314 215.105 236.158 215.529 237.212 215.784L238.731 213.237L239.743 209.926H243.793L250.626 211.2C251.175 210.648 251.597 209.969 251.892 209.162L252.398 208.143L253.917 207.889L254.423 208.398C254.507 209.417 255.014 210.266 255.941 210.945L259.738 210.69L261.762 218.076C262.227 217.652 262.649 217.143 263.028 216.548C263.576 215.869 264.251 215.275 265.053 214.765C265.475 213.874 265.812 212.855 266.065 211.709C265.812 210.775 265.39 209.841 264.8 208.907L262.522 207.125L260.75 206.615C261.088 206.361 261.425 206.021 261.762 205.596L264.293 204.068L265.053 202.286L261.509 200.248L258.725 201.267L255.182 200.757C254.339 200.8 253.495 200.97 252.651 201.267C252.356 201.182 252.103 201.012 251.892 200.757L253.157 197.956C252.693 197.149 252.272 196.215 251.892 195.154C251.301 194.348 250.542 193.754 249.614 193.371L247.083 193.117L243.034 194.39C242.274 194.815 241.515 195.409 240.756 196.173L234.428 197.956L232.657 197.701L235.188 196.428C235.019 195.961 234.766 195.536 234.428 195.154C234.892 194.433 235.483 193.669 236.2 192.862C236.116 192.268 235.947 191.674 235.694 191.079C236.074 190.995 236.495 190.825 236.959 190.57L243.793 189.296L246.577 188.023L247.083 187.259L246.577 185.221C245.986 185.094 245.311 185.009 244.552 184.967L244.046 185.221H243.287V185.476C242.907 186.325 242.569 187.344 242.274 188.532L241.262 189.042L235.694 187.768H232.657V43.6152C232.699 42.5117 232.868 41.323 233.163 40.0497ZM271.886 42.0871C271.928 42.9787 272.266 43.8275 272.899 44.634C272.73 43.7851 272.392 42.9363 271.886 42.0871ZM236.453 42.3418C236.074 43.2334 235.821 44.2521 235.694 45.398L236.706 48.1996L236.2 48.9636L236.453 51.2558C237.086 51.7228 237.845 52.0623 238.731 52.2746C239.322 51.5957 239.743 50.7465 239.996 49.7277L239.743 46.4168L238.984 43.3605C238.225 42.8511 237.381 42.5117 236.453 42.3418ZM259.738 43.8699C260.455 43.9974 261.045 44.3369 261.509 44.8886L260.244 45.398L259.738 43.8699ZM263.787 47.1808H265.306C264.926 47.7326 264.42 48.1572 263.787 48.4543V47.1808ZM248.602 49.2183L247.589 51.5105L250.373 51.7652C251.048 51.2558 251.386 50.4918 251.386 49.473L248.602 49.2183ZM275.176 49.9824L274.923 51.2558H275.43V51.0011L275.176 49.9824ZM370.846 50.4918C370.888 50.8316 371.057 51.0863 371.352 51.2558C371.816 51.1711 372.322 51.0011 372.871 50.7465L370.846 50.4918ZM263.787 53.0386L262.775 53.548L264.293 56.3496L265.559 57.3683L268.596 57.1136L266.065 56.0949C265.348 55.2885 264.589 54.2697 263.787 53.0386ZM251.639 54.0574L250.879 55.3308L252.398 54.8215L251.639 54.0574ZM238.478 54.3121L237.212 55.0761L237.719 57.3683H238.984C239.448 56.5619 239.785 55.7131 239.996 54.8215L238.478 54.3121ZM259.485 57.623C259.738 58.5146 260.413 59.1935 261.509 59.6605C261.889 60.3822 262.48 60.9763 263.281 61.4433C262.944 60.5945 262.438 59.7457 261.762 58.8965C261.298 58.0476 260.539 57.623 259.485 57.623ZM372.365 57.623H375.149L374.896 58.8965L372.618 59.1511L372.365 57.623ZM344.524 58.8965L344.777 60.4246L346.296 60.1699C346.043 59.3635 345.452 58.9388 344.524 58.8965ZM267.077 59.1511C267.415 59.6605 267.921 60.0004 268.596 60.1699C268.217 59.7029 267.71 59.3635 267.077 59.1511ZM366.543 59.4058H368.821L369.074 61.9527C368.99 62.2498 368.821 62.5045 368.568 62.7168L366.543 63.2261V59.4058ZM254.929 59.9152C255.14 60.934 255.477 61.9527 255.941 62.9715L256.701 64.4996L255.435 65.009C254.76 65.5607 254.254 66.3248 253.917 67.3011L258.978 69.3386L270.621 69.084C271.085 68.5746 271.338 67.9804 271.38 67.3011H267.331L261.762 66.5371L261.003 67.0465C260.455 67.4287 259.78 67.7681 258.978 68.0652V66.7918L259.232 63.2261C259.147 62.165 258.894 61.1463 258.472 60.1699L254.929 59.9152ZM355.913 60.6793H357.179L356.926 62.9715C356.462 62.2926 356.124 61.5285 355.913 60.6793ZM372.365 60.6793C373.672 60.7217 375.022 60.9763 376.414 61.4433C377.215 61.9527 377.722 62.7168 377.933 63.7355H376.92L373.124 64.7543C372.744 63.566 372.491 62.2074 372.365 60.6793ZM250.626 62.7168C250.711 63.2261 250.964 63.6508 251.386 63.9902C251.301 63.4385 251.048 63.0138 250.626 62.7168ZM273.658 64.7543L273.911 65.5183L274.164 64.7543H273.658ZM360.722 65.773L360.216 67.5558L361.482 67.8105L361.988 67.5558H362.494C362.705 67.5135 362.874 67.3435 363 67.0465L362.747 65.773H360.722ZM369.074 66.7918H371.099V68.3199C370.888 69.084 370.551 69.848 370.087 70.6121C369.581 70.2303 369.074 69.7209 368.568 69.084C368.568 68.2775 368.737 67.5135 369.074 66.7918ZM346.802 67.8105L346.043 70.3574L347.308 70.1027L348.068 67.8105H346.802ZM276.948 71.6308L276.189 73.6683L277.96 73.923L278.467 73.6683C278.129 72.9043 277.623 72.2254 276.948 71.6308ZM281.504 71.6308C281.673 72.7771 282.348 73.5412 283.529 73.923V71.6308H281.504ZM360.469 72.3949C360.807 72.8619 361.313 73.2013 361.988 73.4136C361.608 72.9467 361.102 72.6072 360.469 72.3949ZM257.713 72.6496L257.966 74.4324L259.991 74.1777L260.244 72.6496H257.713ZM367.303 73.6683L363.253 76.2152C362.663 76.6398 361.988 77.0644 361.228 77.4886L360.722 79.0168L361.482 79.5261L364.012 78.7621L366.037 77.7433C366.67 77.3191 367.261 76.8098 367.809 76.2152V74.1777C367.767 73.923 367.598 73.7535 367.303 73.6683ZM351.864 74.4324C352.117 75.0693 352.623 75.4935 353.383 75.7058C353.045 75.1117 352.539 74.6871 351.864 74.4324ZM276.695 76.7246L276.442 78.5074L278.214 78.2527C278.129 77.4463 277.623 76.9369 276.695 76.7246ZM347.055 76.9793L347.308 83.6011C347.308 83.9834 347.477 84.2381 347.814 84.3652V80.2902C347.814 79.1867 347.561 78.0832 347.055 76.9793ZM352.623 77.4886L352.117 79.5261L352.876 80.0355L353.383 77.998C353.256 77.7433 353.003 77.5738 352.623 77.4886ZM380.97 80.0355C380.084 80.4601 379.24 81.0543 378.439 81.8183L376.667 84.1105L372.871 83.8558C373.124 84.8322 373.546 85.7662 374.136 86.6574C374.938 86.5726 375.782 86.4027 376.667 86.148L378.945 84.3652C379.62 83.8558 380.295 83.1769 380.97 82.3277L381.729 80.5449C381.603 80.2902 381.35 80.1207 380.97 80.0355ZM274.67 81.309L274.417 82.8371L275.43 83.3465L276.189 83.6011L278.214 83.3465C278.129 82.7099 277.876 82.1154 277.454 81.5636L274.67 81.309ZM264.8 83.0918L264.547 84.6199L267.331 84.3652C266.613 83.8135 265.77 83.3888 264.8 83.0918ZM363.759 83.0918L363 84.6199H364.012L364.519 83.6011L363.759 83.0918ZM271.886 84.1105L272.139 87.1668L273.152 86.4027L273.658 85.6386L273.152 84.1105H271.886ZM352.623 86.6574C352.792 87.7185 353.383 88.3131 354.395 88.4402C354.353 87.4215 353.762 86.8273 352.623 86.6574ZM280.745 87.4215L277.201 87.9308C276.4 88.016 275.641 88.3554 274.923 88.9496C275.809 89.0771 276.822 89.1619 277.96 89.2043L281.504 89.459L283.782 90.7324C284.541 90.4353 285.3 89.926 286.06 89.2043C285.553 88.5254 284.879 88.016 284.035 87.6761L280.745 87.4215ZM347.055 87.9308C346.887 89.1195 346.802 90.4777 346.802 92.0058C347.013 93.0246 347.435 94.0433 348.068 95.0621L348.321 91.7511L348.068 90.9871C347.941 89.9683 347.603 88.9496 347.055 87.9308ZM357.685 87.9308L357.179 91.2418L357.685 93.0246L358.951 92.5152C359.246 91.7088 359.415 90.7748 359.457 89.7136C359.077 88.992 358.487 88.3978 357.685 87.9308ZM249.361 88.1855L249.108 90.223L251.133 89.7136L251.639 88.6949L251.386 88.1855H249.361ZM261.509 88.4402L260.75 89.2043L262.269 89.7136C262.184 89.1619 261.931 88.7373 261.509 88.4402ZM253.663 89.459L253.917 90.9871L254.423 91.2418L255.941 90.9871C255.52 90.0535 254.76 89.5441 253.663 89.459ZM266.318 91.4965L267.331 94.0433L269.102 93.2793C268.47 92.3029 267.542 91.7088 266.318 91.4965ZM380.97 91.4965L381.223 93.0246L382.235 92.5152C381.94 92.091 381.518 91.7511 380.97 91.4965ZM282.769 92.0058C282.39 92.9822 282.137 94.0857 282.01 95.3168L282.263 96.5902L284.288 96.3355L284.035 94.5527C283.74 93.6615 283.318 92.8123 282.769 92.0058ZM250.626 94.0433C251.512 94.6803 252.609 95.0197 253.917 95.0621C252.904 94.5951 251.808 94.2556 250.626 94.0433ZM354.395 95.8261C354.733 96.9724 355.323 98.0759 356.167 99.1371L357.179 99.6465C357.98 99.5193 358.824 99.2646 359.71 98.8824L360.216 97.0996L358.698 96.0808L354.395 95.8261ZM344.777 96.8449C344.988 97.6513 345.579 98.0759 346.549 98.1183C346.338 97.3119 345.748 96.8873 344.777 96.8449ZM247.083 97.3543C247.378 97.7365 247.8 97.9912 248.348 98.1183C248.602 97.9488 248.77 97.6941 248.855 97.3543H247.083ZM281.757 98.6277L278.214 100.411C278.214 101.472 278.382 102.66 278.72 103.976C278.171 105.122 277.834 106.481 277.707 108.051L278.973 111.871C279.69 111.235 280.196 110.386 280.491 109.325C280.787 108.009 280.956 106.481 280.998 104.74C281.715 103.764 282.305 102.66 282.769 101.429L283.275 98.6277H281.757ZM348.827 98.6277L348.574 102.193L349.333 109.07C349.881 109.622 350.556 109.962 351.358 110.089L351.864 106.778V102.957L351.105 99.9011C350.43 99.3494 349.671 98.9248 348.827 98.6277ZM250.626 99.3918L249.361 99.6465L249.614 101.175L251.892 100.92C252.356 100.496 252.862 99.9863 253.41 99.3918H250.626ZM372.365 99.6465C371.985 99.9863 371.732 100.411 371.605 100.92C372.196 101.047 372.871 101.132 373.63 101.175L374.136 99.6465H372.365ZM340.222 99.9011L336.172 100.92C335.118 101.132 334.443 101.726 334.147 102.703L338.197 101.939C338.998 101.472 339.673 100.793 340.222 99.9011ZM345.537 101.684L344.777 105.25C344.819 106.141 345.157 106.99 345.79 107.796C346.127 106.778 346.381 105.674 346.549 104.486C346.465 103.509 346.127 102.576 345.537 101.684ZM269.102 101.939L267.331 102.193V105.504C267.499 106.863 267.921 108.306 268.596 109.834L270.115 109.579L269.861 106.268C269.735 104.91 269.482 103.467 269.102 101.939ZM373.124 102.703L373.377 105.759L375.908 105.504C375.571 104.061 374.642 103.127 373.124 102.703ZM331.11 102.957C330.14 103.17 329.212 103.594 328.326 104.231L325.795 105.504C324.994 105.887 324.15 106.396 323.264 107.032L321.999 108.306C322.126 108.561 322.379 108.73 322.758 108.815L330.351 104.74C330.857 104.273 331.11 103.679 331.11 102.957ZM248.348 104.231L247.842 106.523L248.348 107.287L251.892 107.796C251.765 106.99 251.512 106.141 251.133 105.25C250.331 104.783 249.403 104.443 248.348 104.231ZM253.917 104.486L253.663 106.523C253.706 106.863 253.874 107.118 254.17 107.287L257.207 106.778C257.46 106.608 257.629 106.353 257.713 106.014C257.587 105.547 257.334 105.122 256.954 104.74L253.917 104.486ZM357.938 104.486L359.457 106.778C360.005 107.329 360.68 107.839 361.482 108.306L360.975 104.995L357.938 104.486ZM262.775 107.542L263.028 109.325L264.04 109.07C263.787 108.433 263.366 107.924 262.775 107.542ZM329.592 107.796L329.085 108.561L329.592 110.853L330.604 111.362L331.11 111.107L331.616 107.796H329.592ZM251.386 109.325L251.133 110.598H251.892C251.85 110.131 251.681 109.707 251.386 109.325ZM291.374 109.325L287.325 110.343C286.608 110.64 286.017 111.15 285.553 111.871L291.374 111.617L292.387 109.579L291.374 109.325ZM340.475 109.834C340.011 110.386 339.673 111.065 339.462 111.871H341.74C342.078 111.617 342.331 111.277 342.499 110.853C341.909 110.386 341.234 110.046 340.475 109.834ZM274.67 110.598V112.381L275.936 112.126C275.725 111.49 275.303 110.98 274.67 110.598ZM374.642 111.871C373.968 112.593 373.546 113.527 373.377 114.673L373.883 118.493C373.925 119.64 374.431 120.573 375.402 121.295C376.372 121.762 377.469 122.101 378.692 122.314L379.957 121.804L377.173 113.4C376.499 112.678 375.655 112.169 374.642 111.871ZM270.115 112.126L269.355 115.437C269.861 115.777 270.452 115.946 271.127 115.946L272.139 113.145C271.549 112.678 270.874 112.338 270.115 112.126ZM330.604 113.909C330.183 114.801 329.845 115.819 329.592 116.965C330.267 117.517 331.11 117.942 332.123 118.239C332.46 117.347 332.713 116.329 332.882 115.182C332.207 114.588 331.448 114.164 330.604 113.909ZM251.639 115.437L251.386 116.201L251.639 118.493L253.41 123.842C253.621 124.479 254.043 125.073 254.676 125.625L254.929 122.568C254.929 121.55 254.76 120.531 254.423 119.512C253.832 118.918 253.326 118.239 252.904 117.475V115.437H251.639ZM274.923 115.437L275.43 118.493C275.683 119.257 276.105 120.021 276.695 120.786C277.412 120.446 278.003 119.937 278.467 119.257C279.353 118.876 280.28 118.621 281.251 118.493L284.288 119.003C285.132 118.918 286.06 118.663 287.072 118.239L292.64 119.257L295.677 118.748C295.002 118.366 294.243 118.026 293.399 117.729L284.794 115.946L274.923 115.437ZM320.733 115.692L321.493 116.456L323.771 115.946L320.733 115.692ZM367.05 116.711V120.786L367.303 121.55V123.842C368.02 123.757 368.779 123.587 369.581 123.332L369.834 119.767L369.581 119.003C369.412 117.56 368.568 116.796 367.05 116.711ZM325.795 118.239C326.006 118.918 326.428 119.512 327.061 120.021C326.85 119.343 326.428 118.748 325.795 118.239ZM266.824 120.276C266.909 120.658 267.162 120.998 267.584 121.295C267.584 120.828 267.331 120.488 266.824 120.276ZM318.456 120.531C318.16 121.422 317.907 122.441 317.696 123.587C317.823 123.927 318.076 124.182 318.456 124.351L320.227 123.842C320.691 123.078 321.029 122.229 321.24 121.295C320.354 120.913 319.426 120.658 318.456 120.531ZM262.016 122.059C262.058 122.696 262.311 123.29 262.775 123.842C262.649 123.248 262.395 122.653 262.016 122.059ZM332.629 122.823L327.314 124.606L326.301 127.153C326.344 127.79 326.597 128.214 327.061 128.426L329.085 126.643C329.634 126.049 330.309 125.625 331.11 125.37L333.894 124.606C333.599 123.927 333.177 123.332 332.629 122.823ZM376.414 124.606L376.667 128.426C377.426 129.105 378.439 129.445 379.704 129.445L378.945 125.879C378.228 125.37 377.384 124.946 376.414 124.606ZM321.24 126.134C321.324 126.643 321.577 127.068 321.999 127.407C321.915 126.856 321.662 126.431 321.24 126.134ZM254.17 127.662V130.209L254.929 129.7L255.435 127.662H254.17ZM238.984 127.917V130.464L240.503 130.209L240.249 127.917H238.984ZM313.141 130.464C313.183 130.973 313.352 131.482 313.647 131.992L315.165 131.482L313.141 130.464ZM259.991 131.992L260.75 134.029L262.522 133.775V131.992H259.991ZM267.584 132.246V133.52L268.596 132.756L267.584 132.246ZM254.17 133.265C254.381 133.775 254.718 134.199 255.182 134.539C254.971 134.029 254.634 133.605 254.17 133.265ZM378.439 134.284C378.102 134.496 377.848 134.836 377.68 135.303C377.806 135.94 378.144 136.534 378.692 137.086L379.198 134.793C379.072 134.539 378.819 134.369 378.439 134.284ZM238.478 135.303L239.237 138.868C239.912 139.42 240.756 139.845 241.768 140.142C241.726 138.911 241.557 137.637 241.262 136.321L238.478 135.303ZM293.146 135.812C293.231 136.321 293.484 136.746 293.905 137.086C293.821 136.534 293.568 136.109 293.146 135.812ZM363 136.067C362.663 136.407 362.41 136.831 362.241 137.34L363.506 138.104L364.012 136.321L363 136.067ZM267.331 136.576C267.499 137.298 267.837 137.977 268.343 138.614L269.355 138.104L269.608 136.576H267.331ZM285.553 136.831V138.104C286.017 137.807 286.439 137.383 286.819 136.831H285.553ZM254.676 139.123L255.435 142.434L255.941 143.707L257.46 143.198L257.966 140.906L257.207 140.396C256.532 139.845 255.688 139.42 254.676 139.123ZM363.253 139.378C362.747 140.099 362.41 140.948 362.241 141.925H363.506C363.844 141.118 364.097 140.269 364.266 139.378H363.253ZM324.024 139.632C324.108 140.396 324.446 141.161 325.036 141.925C325.627 142.264 326.301 142.434 327.061 142.434L327.314 140.396L326.808 139.887L324.024 139.632ZM249.361 141.161L248.095 142.179L247.842 144.217L248.095 144.726C248.18 146.042 248.855 147.146 250.12 148.037H251.386L250.879 141.161H249.361ZM269.608 141.925C269.819 142.561 270.241 143.071 270.874 143.453L271.127 142.179L269.608 141.925ZM238.478 142.689L239.237 146.254L241.515 152.367L242.274 153.131L244.046 152.621C244.299 152.367 244.468 152.027 244.552 151.603L243.793 145.49V143.198L242.274 142.943L238.478 142.689ZM293.905 142.689C293.231 142.943 292.64 143.368 292.134 143.962V145.236L293.905 144.981C294.665 144.769 295.34 144.344 295.93 143.707C295.34 143.24 294.665 142.901 293.905 142.689ZM314.406 143.707C314.069 144.557 313.816 145.49 313.647 146.509C313.942 147.401 314.111 148.334 314.153 149.311C314.997 149.693 315.925 149.947 316.937 150.075C317.401 149.48 317.823 148.801 318.202 148.037L320.733 146.764C320.522 146.254 320.185 145.83 319.721 145.49L317.443 144.217C316.558 144.004 315.545 143.835 314.406 143.707ZM363.253 143.707C363.338 144.811 364.012 145.575 365.278 146V149.056L366.543 148.801L366.037 145.49C365.278 144.684 364.35 144.09 363.253 143.707ZM357.685 145.236C357.685 146.254 357.854 147.358 358.191 148.546V146C358.107 145.66 357.938 145.405 357.685 145.236ZM366.29 153.895C366.375 154.404 366.628 154.829 367.05 155.168C366.965 154.617 366.712 154.192 366.29 153.895ZM312.887 155.932C312.128 156.06 311.538 156.315 311.116 156.696C311.875 156.654 312.466 156.399 312.887 155.932ZM255.435 156.187C255.983 156.612 256.658 156.866 257.46 156.951L255.435 156.187ZM366.037 156.951C366.29 157.843 366.712 158.776 367.303 159.753C367.936 160.22 368.695 160.474 369.581 160.517L369.834 158.225L369.327 157.461L366.037 156.951ZM361.482 157.206L359.963 157.461L360.216 159.753L360.722 160.771L363 160.517L364.519 157.97C363.633 157.588 362.621 157.333 361.482 157.206ZM242.274 159.243C242.359 160.857 243.202 161.79 244.805 162.045L245.058 159.243H242.274ZM298.967 159.243L299.473 160.517L300.233 160.771L307.572 160.007C306.56 159.668 305.464 159.413 304.282 159.243H298.967ZM317.19 162.554L316.937 164.846L316.684 165.611H317.443L317.949 163.318C317.823 162.936 317.57 162.682 317.19 162.554ZM244.046 163.573V165.356L246.324 164.592L244.046 163.573ZM366.543 163.828L364.012 164.846C364.477 165.186 365.067 165.441 365.784 165.611L368.568 165.101C368.062 164.465 367.387 164.04 366.543 163.828ZM296.183 165.101C296.31 165.441 296.563 165.611 296.943 165.611L296.183 165.101ZM355.66 165.865C355.702 166.884 355.871 167.903 356.167 168.921L357.685 168.412C358.107 167.776 358.36 167.011 358.444 166.12L355.66 165.865ZM369.327 166.629C369.749 166.884 370.256 167.054 370.846 167.139L369.327 166.629ZM363.759 169.176V170.45L367.556 170.959C366.586 170.025 365.32 169.431 363.759 169.176ZM355.913 170.704L354.901 173.251H355.913L356.673 171.214C356.546 170.959 356.293 170.789 355.913 170.704ZM264.04 171.723C264.336 172.105 264.757 172.36 265.306 172.487C265.011 172.105 264.589 171.851 264.04 171.723ZM235.694 172.232L235.947 173.251C236.411 173.039 236.833 172.699 237.212 172.232H235.694ZM366.037 175.034L366.543 176.562L368.315 176.817L368.821 176.562V175.034H366.037ZM357.179 175.289L355.913 177.581C355.618 178.303 355.449 179.067 355.407 179.873C355.956 180.425 356.378 181.104 356.673 181.911L359.204 189.806L359.457 193.117C359.288 193.796 358.951 194.475 358.444 195.154L357.432 197.446L356.673 202.54L356.926 203.304C357.053 204.111 357.306 204.96 357.685 205.851L358.951 207.889L360.975 209.417C361.06 210.138 361.313 210.818 361.735 211.454L363.506 211.2L363.253 210.181C362.536 209.757 361.861 209.247 361.228 208.653L360.469 206.106C360.933 205.469 361.608 204.96 362.494 204.578L362.747 202.54L362.241 202.031C361.65 201.564 361.228 200.97 360.975 200.248L363.759 199.484C364.434 198.975 364.772 198.211 364.772 197.192L363 195.664C362.452 195.112 361.946 194.433 361.482 193.626L360.722 191.079V187.514L361.228 184.712L359.204 183.184L358.698 180.382V176.817C358.402 176.18 357.896 175.671 357.179 175.289ZM263.028 175.543L263.534 176.817L266.065 176.562C265.137 176.18 264.125 175.84 263.028 175.543ZM311.369 176.817L312.634 178.345L314.659 178.09C313.647 177.538 312.55 177.114 311.369 176.817ZM242.021 178.09L239.49 179.873L237.465 181.911C236.917 182.59 236.58 183.439 236.453 184.457C237.17 184.373 237.93 184.203 238.731 183.948L240.756 181.656L241.262 180.637L245.311 180.892L244.805 179.109C244.088 178.472 243.16 178.133 242.021 178.09ZM362.747 179.364V180.892C363.211 180.51 363.633 180.001 364.012 179.364H362.747ZM255.182 179.873L253.41 180.637C253.621 181.104 253.959 181.529 254.423 181.911L255.941 181.146C255.857 180.595 255.604 180.17 255.182 179.873ZM261.509 179.873L260.75 181.401H261.762C261.973 181.359 262.142 181.189 262.269 180.892C262.142 180.552 261.889 180.213 261.509 179.873ZM266.571 183.184L263.534 184.712C263.028 185.349 262.691 186.113 262.522 187.004L265.559 185.731C266.023 184.924 266.36 184.076 266.571 183.184ZM256.701 184.712L253.917 185.731L251.892 187.004C251.428 187.641 251.006 188.405 250.626 189.296L250.12 190.57V191.334L250.626 191.079L254.676 188.278L256.954 187.259C257.08 186.665 257.165 185.986 257.207 185.221C257.165 184.967 256.996 184.797 256.701 184.712ZM255.941 191.334C256.49 191.971 257.165 192.565 257.966 193.117H261.256C260.582 192.607 259.822 192.183 258.978 191.843L255.941 191.334ZM247.336 194.645L249.614 195.409C249.53 196.215 249.277 197.065 248.855 197.956L246.83 198.211L247.336 194.645ZM255.435 196.682L255.688 198.975L257.713 198.465L257.966 196.937L255.435 196.682ZM261.003 196.937L261.256 197.956L263.787 197.701C262.902 197.319 261.973 197.065 261.003 196.937ZM243.287 200.248C244.426 200.673 245.185 201.521 245.564 202.795L245.818 204.068L243.793 204.323L243.034 204.068C241.979 203.729 241.135 202.965 240.503 201.776C241.304 201.224 242.232 200.715 243.287 200.248ZM366.797 200.757C366.881 201.267 367.134 201.691 367.556 202.031C367.472 201.479 367.218 201.054 366.797 200.757ZM251.386 201.521L251.639 205.342L249.361 205.087L249.108 202.031L251.386 201.521ZM244.046 205.851C244.637 206.106 245.143 206.615 245.564 207.379H242.78C243.076 206.828 243.498 206.318 244.046 205.851ZM378.186 207.634L378.439 210.69L380.717 210.181L380.97 209.417L380.464 207.634H378.186ZM366.037 209.926C366.164 210.266 366.417 210.436 366.797 210.436L367.303 209.926H366.037ZM379.451 211.964C378.903 212.643 378.481 213.492 378.186 214.511L378.945 221.387C379.493 221.939 380.253 222.279 381.223 222.406C381.814 221.769 382.235 221.005 382.488 220.114L381.729 217.057L381.476 213.492L379.451 211.964ZM366.543 213.237L366.037 214.001L366.797 215.784L369.834 215.275L370.593 214.001C370.467 213.746 370.213 213.577 369.834 213.492L366.543 213.237ZM244.805 213.746L246.324 214.001L246.83 213.746H244.805ZM265.306 221.387L268.343 221.896L269.355 222.406C269.313 222.873 269.144 223.297 268.849 223.679L266.065 224.189L265.306 221.387Z" fill="black"/>
</g>
<g filter="url(#filter1_d)">
<path d="M226.57 281.175L226.003 278.322C224.226 279.501 222.394 280.376 220.504 280.947C218.652 281.479 217.083 281.745 215.798 281.745H213.247C210.677 281.745 208.617 280.966 207.067 279.406C205.518 277.847 204.743 275.774 204.743 273.188V260.066C204.743 257.214 205.537 254.989 207.124 253.392C208.749 251.756 210.979 250.938 213.814 250.938H225.436V241.24H235.357V281.175H226.57ZM218.633 273.473C220.636 273.473 222.904 273.093 225.436 272.332V258.64H216.932C215.42 258.64 214.664 259.401 214.664 260.922V271.476C214.664 272.047 214.853 272.523 215.231 272.903C215.609 273.283 216.082 273.473 216.648 273.473H218.633ZM253.493 252.079V281.175H243.571V259.781H239.319V252.079H253.493ZM243.571 240.669H253.493V248.656H243.571V240.669ZM278.738 278.893C275.072 279.654 271.86 280.034 269.101 280.034H267.116C264.546 280.034 262.486 279.254 260.937 277.695C259.387 276.135 258.612 274.063 258.612 271.476V260.066C258.612 257.214 259.406 254.989 260.993 253.392C262.619 251.756 264.849 250.938 267.683 250.938H288.66V282.886C288.66 285.473 287.885 287.545 286.335 289.105C284.786 290.664 282.726 291.444 280.156 291.444C274.222 291.444 267.608 291.064 260.313 290.303V282.886C267.532 283.457 273.012 283.742 276.754 283.742C277.321 283.742 277.794 283.552 278.171 283.172C278.55 282.791 278.738 282.316 278.738 281.745V278.893ZM271.935 272.332C274.316 272.332 276.584 272.142 278.738 271.762V258.64H270.801C269.29 258.64 268.534 259.401 268.534 260.922V270.335C268.534 270.906 268.723 271.382 269.101 271.762C269.479 272.142 269.951 272.332 270.518 272.332H271.935ZM306.808 252.079V281.175H296.887V259.781H292.635V252.079H306.808ZM296.887 240.669H306.808V248.656H296.887V240.669ZM333.472 281.175C329.805 281.555 326.215 281.745 322.7 281.745C320.13 281.745 318.07 280.966 316.521 279.406C314.971 277.847 314.196 275.774 314.196 273.188V258.64H310.795V250.938H314.196L315.33 244.092H324.118V250.938H331.204V258.64H324.118V271.762C324.118 272.332 324.306 272.808 324.684 273.188C325.062 273.568 325.535 273.758 326.102 273.758H333.472V281.175ZM348.263 273.758C350.266 273.758 352.534 273.378 355.066 272.617V269.194H346.845C346.278 269.194 345.806 269.385 345.428 269.765C345.05 270.145 344.861 270.621 344.861 271.191V271.762C344.861 272.332 345.05 272.808 345.428 273.188C345.806 273.568 346.278 273.758 346.845 273.758H348.263ZM337.774 251.509C344.691 250.748 350.927 250.368 356.483 250.368C359.053 250.368 361.113 251.147 362.663 252.707C364.212 254.266 364.987 256.339 364.987 258.925V281.175H356.2L355.633 278.322C353.857 279.501 352.023 280.376 350.134 280.947C348.282 281.479 346.713 281.745 345.428 281.745H343.444C340.874 281.745 338.814 280.966 337.264 279.406C335.715 277.847 334.94 275.774 334.94 273.188V270.621C334.94 268.034 335.715 265.962 337.264 264.402C338.814 262.843 340.874 262.063 343.444 262.063H355.066V259.781C355.066 259.211 354.877 258.735 354.499 258.355C354.121 257.975 353.649 257.784 353.082 257.784C350.625 257.784 347.904 257.899 344.918 258.127C341.97 258.355 339.589 258.526 337.774 258.64V251.509ZM385.381 281.175C382.849 281.555 380.43 281.745 378.125 281.745C375.857 281.745 373.948 280.966 372.399 279.406C370.849 277.847 370.074 275.774 370.074 273.188V241.24H379.995V271.762C379.995 272.332 380.185 272.808 380.562 273.188C380.94 273.568 381.413 273.758 381.98 273.758H385.381V281.175Z" fill="black"/>
</g>
<defs>
<filter id="filter0_d" x="13.9064" y="24.6411" width="375.366" height="209.203" filterUnits="userSpaceOnUse" color-interpolation-filters="sRGB">
<feFlood flood-opacity="0" result="BackgroundImageFix"/>
<feColorMatrix in="SourceAlpha" type="matrix" values="0 0 0 0 0 0 0 0 0 0 0 0 0 0 0 0 0 0 127 0"/>
<feOffset dy="4"/>
<feGaussianBlur stdDeviation="2"/>
<feColorMatrix type="matrix" values="0 0 0 0 0 0 0 0 0 0 0 0 0 0 0 0 0 0 0.25 0"/>
<feBlend mode="normal" in2="BackgroundImageFix" result="effect1_dropShadow"/>
<feBlend mode="normal" in="SourceGraphic" in2="effect1_dropShadow" result="shape"/>
</filter>
<filter id="filter1_d" x="200.743" y="240.669" width="188.638" height="58.7745" filterUnits="userSpaceOnUse" color-interpolation-filters="sRGB">
<feFlood flood-opacity="0" result="BackgroundImageFix"/>
<feColorMatrix in="SourceAlpha" type="matrix" values="0 0 0 0 0 0 0 0 0 0 0 0 0 0 0 0 0 0 127 0"/>
<feOffset dy="4"/>
<feGaussianBlur stdDeviation="2"/>
<feColorMatrix type="matrix" values="0 0 0 0 0 0 0 0 0 0 0 0 0 0 0 0 0 0 0.25 0"/>
<feBlend mode="normal" in2="BackgroundImageFix" result="effect1_dropShadow"/>
<feBlend mode="normal" in="SourceGraphic" in2="effect1_dropShadow" result="shape"/>
</filter>
</defs>
</svg>
